#!OML:ASF H:\LiuWeirdWalks\Patient Classification 1\Patient 1\Session 1\male.ASF
:FULLY-SPECIFIED
:DEGREES
1359
root 1.30486 18.1186 31.6552 4.32086 4.59354 8.36477
lowerback 2.54142 -1.6067 -7.74019
upperback -1.25529 -2.3554 3.14821
thorax -2.29299 -1.0301 7.76323
lowerneck -27.1065 3.41359 9.87928
upperneck 29.8332 5.36933 -13.388
head 15.8312 1.45482 -6.37852
rclavicle 2.38542e-015 -1.59028e-015
rhumerus -19.3022 -32.9543 -17.8083
rradius 27.3227
rwrist 1.63451
rhand -26.749 2.71732
rfingers 7.12502
rthumb -0.177633 -27.2623
lclavicle 2.38542e-015 -1.59028e-015
lhumerus -26.6525 21.3571 30.3112
lradius 43.8648
lwrist 53.0213
lhand -42.8258 -7.53708
lfingers 7.12502
lthumb -15.6906 21.8468
rfemur -13.2684 -4.69415 9.60039
rtibia 33.9777
rfoot -14.7385 -21.9708
rtoes -2.88776
lfemur -5.54924 -2.28304 -24.4523
ltibia 13.6856
lfoot -2.06489 15.1333
ltoes -9.25369
1360
root 1.32825 18.1191 31.6754 4.3771 4.59163 8.36561
lowerback 2.43212 -1.6323 -7.91869
upperback -1.31946 -2.39123 3.07006
thorax -2.28846 -1.04368 7.78078
lowerneck -27.0792 3.42213 9.91933
upperneck 29.8244 5.32593 -13.2833
head 15.8091 1.45659 -6.34526
rclavicle 8.54774e-015 2.22639e-014
rhumerus -19.244 -32.8299 -17.7358
rradius 27.1914
rwrist 1.51001
rhand -26.8255 2.66465
rfingers 7.12502
rthumb -0.251553 -27.3149
lclavicle 8.54774e-015 2.22639e-014
lhumerus -26.7999 21.3044 30.252
lradius 43.9152
lwrist 52.7868
lhand -42.7819 -7.26211
lfingers 7.12502
lthumb -15.6483 22.125
rfemur -13.2312 -4.48419 9.55406
rtibia 33.9401
rfoot -14.7013 -22.2437
rtoes -2.78343
lfemur -5.47622 -2.29814 -24.5312
ltibia 13.5814
lfoot -2.10971 15.1578
ltoes -9.29092
1361
root 1.35188 18.1192 31.6954 4.4195 4.59243 8.35491
lowerback 2.33439 -1.65285 -8.07134
upperback -1.37308 -2.41965 2.99347
thorax -2.28166 -1.05439 7.78494
lowerneck -27.0757 3.42677 9.95316
upperneck 29.8312 5.27793 -13.1755
head 15.7987 1.45563 -6.31225
rclavicle 1.80894e-014 1.90833e-014
rhumerus -19.1888 -32.7062 -17.6536
rradius 27.0698
rwrist 1.36613
rhand -26.9038 2.60515
rfingers 7.12502
rthumb -0.327209 -27.3743
lclavicle 1.80894e-014 1.90833e-014
lhumerus -26.9294 21.2396 30.2058
lradius 43.9664
lwrist 52.6132
lhand -42.7444 -7.02781
lfingers 7.12502
lthumb -15.6122 22.3622
rfemur -13.1683 -4.28472 9.51425
rtibia 33.8788
rfoot -14.6595 -22.4909
rtoes -2.67254
lfemur -5.41196 -2.32038 -24.5992
ltibia 13.5225
lfoot -2.1743 15.1931
ltoes -9.33156
1362
root 1.37523 18.1188 31.7148 4.45388 4.60069 8.33443
lowerback 2.2452 -1.66962 -8.20455
upperback -1.41396 -2.44233 2.92054
thorax -2.26797 -1.06329 7.78158
lowerneck -27.1054 3.43156 9.98689
upperneck 29.8372 5.22966 -13.0745
head 15.7959 1.45272 -6.28311
rclavicle -1.13307e-014 9.54166e-015
rhumerus -19.1538 -32.6217 -17.555
rradius 26.9831
rwrist 1.2588
rhand -26.9672 2.56654
rfingers 7.12502
rthumb -0.388396 -27.4129
lclavicle -1.13307e-014 9.54166e-015
lhumerus -27.035 21.1891 30.1684
lradius 43.9747
lwrist 52.2547
lhand -42.6581 -6.651
lfingers 7.12502
lthumb -15.529 22.7454
rfemur -13.0884 -4.10094 9.4814
rtibia 33.8008
rfoot -14.6332 -22.7095
rtoes -2.55025
lfemur -5.36233 -2.34375 -24.6551
ltibia 13.5031
lfoot -2.25159 15.2248
ltoes -9.37942
1363
root 1.39817 18.1189 31.7341 4.43563 4.62314 8.16031
lowerback 2.193 -1.68456 -8.18071
upperback -1.43708 -2.45851 2.89319
thorax -2.26157 -1.07148 7.73733
lowerneck -27.1593 3.43394 10.0119
upperneck 29.8556 5.18133 -12.9749
head 15.8042 1.44803 -6.25456
rclavicle 2.3556e-014 3.49861e-014
rhumerus -19.1223 -32.5248 -17.4557
rradius 26.9253
rwrist 1.13041
rhand -27.0288 2.53489
rfingers 7.12502
rthumb -0.447892 -27.4444
lclavicle 2.3556e-014 3.49861e-014
lhumerus -27.1315 21.1477 30.1408
lradius 44.0005
lwrist 52.1233
lhand -42.629 -6.45873
lfingers 7.12502
lthumb -15.501 22.9399
rfemur -12.9439 -3.9087 9.62041
rtibia 33.6992
rfoot -14.625 -22.9242
rtoes -2.43764
lfemur -5.29012 -2.35652 -24.5397
ltibia 13.5282
lfoot -2.35667 15.2488
ltoes -9.42564
1364
root 1.42044 18.1189 31.753 4.43308 4.64113 8.02898
lowerback 2.12478 -1.68861 -8.18715
upperback -1.45001 -2.45989 2.85394
thorax -2.23773 -1.07306 7.69651
lowerneck -27.2583 3.42268 10.0011
upperneck 29.8863 5.11904 -12.8556
head 15.8243 1.43489 -6.21539
rclavicle 1.55052e-014 0
rhumerus -19.1278 -32.4899 -17.327
rradius 26.9087
rwrist 1.04338
rhand -27.0698 2.52619
rfingers 7.12502
rthumb -0.487521 -27.453
lclavicle 1.55052e-014 0
lhumerus -27.176 21.1445 30.1436
lradius 43.9933
lwrist 52.0455
lhand -42.6058 -6.3351
lfingers 7.12502
lthumb -15.4787 23.0652
rfemur -12.8152 -3.74252 9.71126
rtibia 33.5978
rfoot -14.6212 -23.1036
rtoes -2.34463
lfemur -5.24596 -2.35802 -24.4665
ltibia 13.5715
lfoot -2.46898 15.2555
ltoes -9.47235
1365
root 1.44283 18.1189 31.7717 4.44327 4.6551 7.91986
lowerback 2.04224 -1.68825 -8.20259
upperback -1.45929 -2.45449 2.81
thorax -2.20317 -1.0718 7.65503
lowerneck -27.3849 3.4079 9.97509
upperneck 29.9253 5.05473 -12.7307
head 15.8536 1.41934 -6.17252
rclavicle -1.635e-014 -1.74931e-014
rhumerus -19.1539 -32.4916 -17.1826
rradius 26.9242
rwrist 1.01328
rhand -27.0871 2.55064
rfingers 7.12502
rthumb -0.5042 -27.4285
lclavicle -1.635e-014 -1.74931e-014
lhumerus -27.1981 21.1786 30.1563
lradius 43.9422
lwrist 51.8294
lhand -42.5499 -6.11565
lfingers 7.12502
lthumb -15.4249 23.2888
rfemur -12.7055 -3.62441 9.77269
rtibia 33.5064
rfoot -14.6154 -23.2341
rtoes -2.29454
lfemur -5.21477 -2.34933 -24.4164
ltibia 13.6149
lfoot -2.58145 15.2475
ltoes -9.51111
1366
root 1.46505 18.1189 31.7898 4.47635 4.65687 7.89491
lowerback 1.94827 -1.67323 -8.28742
upperback -1.47152 -2.43125 2.74194
thorax -2.16718 -1.06059 7.627
lowerneck -27.5363 3.37669 9.91822
upperneck 29.9714 4.97245 -12.5888
head 15.8873 1.39446 -6.12115
rclavicle 2.18663e-015 -1.90833e-014
rhumerus -19.2109 -32.5022 -17.0035
rradius 26.9449
rwrist 0.994566
rhand -27.1035 2.5718
rfingers 7.12502
rthumb -0.520004 -27.4073
lclavicle 2.18663e-015 -1.90833e-014
lhumerus -27.1662 21.2256 30.2047
lradius 43.8671
lwrist 51.7167
lhand -42.5088 -6.00427
lfingers 7.12502
lthumb -15.3853 23.4033
rfemur -12.6423 -3.53782 9.73754
rtibia 33.4575
rfoot -14.6125 -23.3333
rtoes -2.27271
lfemur -5.17716 -2.32144 -24.4568
ltibia 13.6038
lfoot -2.6685 15.2133
ltoes -9.55065
1367
root 1.48723 18.119 31.8076 4.53372 4.64584 7.93217
lowerback 1.8437 -1.65743 -8.43411
upperback -1.49286 -2.40825 2.6606
thorax -2.13312 -1.04817 7.62027
lowerneck -27.677 3.34789 9.86651
upperneck 30.0158 4.89345 -12.4505
head 15.9189 1.37152 -6.07132
rclavicle 5.1684e-015 1.27222e-014
rhumerus -19.2633 -32.526 -16.8283
rradius 26.975
rwrist 1.01801
rhand -27.1097 2.60439
rfingers 7.12502
rthumb -0.526023 -27.3747
lclavicle 5.1684e-015 1.27222e-014
lhumerus -27.1488 21.2731 30.2459
lradius 43.7737
lwrist 51.4415
lhand -42.4134 -5.78995
lfingers 7.12502
lthumb -15.2934 23.6246
rfemur -12.6275 -3.47815 9.6307
rtibia 33.4468
rfoot -14.6131 -23.4061
rtoes -2.26708
lfemur -5.13715 -2.28323 -24.564
ltibia 13.5437
lfoot -2.73029 15.1626
ltoes -9.59424
1368
root 1.50925 18.1189 31.8249 4.61109 4.61848 8.04067
lowerback 1.72933 -1.64479 -8.65943
upperback -1.51824 -2.39095 2.5644
thorax -2.09463 -1.03754 7.64276
lowerneck -27.8049 3.32829 9.83486
upperneck 30.0351 4.82225 -12.3252
head 15.9383 1.35264 -6.0272
rclavicle -3.03147e-015 1.11319e-014
rhumerus -19.2851 -32.517 -16.6805
rradius 26.9942
rwrist 1.04139
rhand -27.12 2.63309
rfingers 7.12502
rthumb -0.535999 -27.346
lclavicle -3.03147e-015 1.11319e-014
lhumerus -27.1627 21.3304 30.2663
lradius 43.6783
lwrist 51.0571
lhand -42.2636 -5.55329
lfingers 7.12502
lthumb -15.1491 23.8722
rfemur -12.6554 -3.43887 9.44199
rtibia 33.4715
rfoot -14.6186 -23.4527
rtoes -2.27469
lfemur -5.08888 -2.23836 -24.7496
ltibia 13.4347
lfoot -2.76007 15.1048
ltoes -9.66142
1369
root 1.53096 18.1182 31.8421 4.68214 4.58823 8.1587
lowerback 1.61572 -1.63106 -8.88532
upperback -1.53416 -2.37145 2.46174
thorax -2.04744 -1.02669 7.6584
lowerneck -27.9364 3.31336 9.82019
upperneck 30.0414 4.75142 -12.2083
head 15.9534 1.33469 -5.98899
rclavicle 1.7344e-014 2.8625e-014
rhumerus -19.3062 -32.5393 -16.5469
rradius 27.0223
rwrist 1.08393
rhand -27.1242 2.63224
rfingers 7.12502
rthumb -0.540045 -27.3468
lclavicle 1.7344e-014 2.8625e-014
lhumerus -27.1608 21.4008 30.2832
lradius 43.5792
lwrist 50.7337
lhand -42.1396 -5.37289
lfingers 7.12502
lthumb -15.0296 24.0616
rfemur -12.6784 -3.41834 9.24015
rtibia 33.4984
rfoot -14.625 -23.4794
rtoes -2.27986
lfemur -5.03277 -2.19313 -24.9463
ltibia 13.33
lfoot -2.79051 15.0485
ltoes -9.74898
1370
root 1.55225 18.1174 31.8591 4.75117 4.54634 8.27319
lowerback 1.48865 -1.61244 -9.09513
upperback -1.53938 -2.34279 2.35414
thorax -1.9841 -1.01285 7.65859
lowerneck -28.074 3.29656 9.80518
upperneck 30.0456 4.67474 -12.085
head 15.9678 1.3151 -5.94906
rclavicle 2.3059e-014 -1.59028e-014
rhumerus -19.339 -32.601 -16.4173
rradius 27.0598
rwrist 1.18256
rhand -27.1135 2.61404
rfingers 7.12502
rthumb -0.529737 -27.365
lclavicle 2.3059e-014 -1.59028e-014
lhumerus -27.1348 21.4875 30.2944
lradius 43.4471
lwrist 50.3115
lhand -42.0081 -5.12203
lfingers 7.12502
lthumb -14.903 24.3219
rfemur -12.6963 -3.39445 9.04244
rtibia 33.5113
rfoot -14.6315 -23.4946
rtoes -2.27902
lfemur -4.98839 -2.14718 -25.1396
ltibia 13.2556
lfoot -2.82623 15.0047
ltoes -9.85751
1371
root 1.57291 18.1168 31.8768 4.76464 4.50802 8.23342
lowerback 1.39217 -1.60331 -9.16415
upperback -1.53573 -2.3243 2.29337
thorax -1.9296 -1.00593 7.62915
lowerneck -28.1614 3.28938 9.8135
upperneck 30.0374 4.60902 -11.9735
head 15.968 1.30241 -5.91442
rclavicle -2.33572e-015 -7.95139e-015
rhumerus -19.3264 -32.5951 -16.3428
rradius 27.0926
rwrist 1.24263
rhand -27.1161 2.56501
rfingers 7.12502
rthumb -0.53221 -27.4141
lclavicle -2.33572e-015 -7.95139e-015
lhumerus -27.177 21.5464 30.2612
lradius 43.345
lwrist 49.8793
lhand -41.8605 -4.84344
lfingers 7.12502
lthumb -14.7608 24.611
rfemur -12.6442 -3.33561 9.02093
rtibia 33.4932
rfoot -14.6474 -23.5276
rtoes -2.26779
lfemur -4.91543 -2.09358 -25.1627
ltibia 13.229
lfoot -2.88441 14.9751
ltoes -9.97987
1372
root 1.59257 18.1168 31.8946 4.76871 4.45146 8.13575
lowerback 1.32748 -1.52043 -9.06549
upperback -1.57684 -2.20816 2.19439
thorax -1.96609 -0.946345 7.46369
lowerneck -28.1857 3.17849 9.70266
upperneck 30.0686 4.41874 -11.7644
head 15.9458 1.23916 -5.84192
rclavicle 2.53947e-014 -1.43125e-014
rhumerus -19.5339 -32.7835 -16.0511
rradius 27.0234
rwrist 1.50289
rhand -27.1041 2.58736
rfingers 7.12502
rthumb -0.52065 -27.3917
lclavicle 2.53947e-014 -1.43125e-014
lhumerus -27.0002 21.4324 30.3293
lradius 43.1147
lwrist 49.5646
lhand -41.7063 -4.6824
lfingers 7.12502
lthumb -14.6122 24.7828
rfemur -12.5723 -3.23918 9.06965
rtibia 33.4351
rfoot -14.6507 -23.571
rtoes -2.24594
lfemur -4.87075 -2.03858 -25.1192
ltibia 13.2679
lfoot -2.96972 14.9759
ltoes -10.0838
